HIERARCHY
ROOT Hips
{
	OFFSET 0.00000 0.00000 0.00000
	CHANNELS 6 Xposition Yposition Zposition Yrotation Zrotation Xrotation 
	JOINT Lumbar
	{
		OFFSET 0 0 0
		CHANNELS 3 Zrotation Xrotation Yrotation
		JOINT Neck
		{
			OFFSET 0.00 0.2701 0.00
			CHANNELS 3 Zrotation Xrotation Yrotation
			End Site
			{
				OFFSET 0.00 0.1379 0.00
			}
		}
		JOINT RightShoulder
		{
			OFFSET 0.0119 0.2289 0.1181
			CHANNELS 3 Zrotation Xrotation Yrotation
			JOINT RightElbow
			{
				OFFSET 0.00 -0.1475 0.00
				CHANNELS 2 Zrotation Yrotation
				JOINT RightWrist
				{
					OFFSET 0.00 -0.1605 0.00
					CHANNELS 2 Zrotation Xrotation
					End Site
					{
						OFFSET 0.0040 -0.1068 0.0006
					}
				}
			}
		}
		JOINT LeftShoulder
		{
			OFFSET 0.0119 0.2289 -0.1181
			CHANNELS 3 Zrotation Xrotation Yrotation
			JOINT LeftElbow
			{
				OFFSET 0.00 -0.1475 0.00
				CHANNELS 2 Zrotation Yrotation
				JOINT LeftWrist
				{
					OFFSET 0.00 -0.1605 0.00
					CHANNELS 2 Zrotation Xrotation
					End Site
					{
						OFFSET 0.0040 -0.1068 -0.0006
					}
				}
			}
		}
	}
	JOINT RightHip
	{
		OFFSET 0.0316 -0.0424 0.0458
		CHANNELS 3 Zrotation Xrotation Yrotation
		JOINT RightKnee
		{
			OFFSET 0.00 -0.2438 0.00
			CHANNELS 1 Zrotation
			JOINT RightAnkle
			{
				OFFSET 0.00 -0.2449 0.00
				CHANNELS 3 Zrotation Xrotation Yrotation
				End Site
				{
					OFFSET 0.1237 -0.0542 0.0051
				}
			}
		}
	}
	JOINT LeftHip
	{
		OFFSET 0.0316 -0.0424 -0.0458
		CHANNELS 3 Zrotation Xrotation Yrotation
		JOINT LeftKnee
		{
			OFFSET 0.00 -0.2438 0.00
			CHANNELS 1 Zrotation
			JOINT LeftAnkle
			{
				OFFSET 0.00 -0.2449 0.00
				CHANNELS 3 Zrotation Xrotation Yrotation
				End Site
				{
					OFFSET 0.1237 -0.0542 -0.0051
				}
			}
		}
	}
}
MOTION
Frames: 33
Frame Time: 0.02
-0.42871 -0.28033 -0.1519 38.80346 53.43723 -15.61055 13.24513 1.17793 -4.29441 -17.15126 25.69386 -0.83079 23.17814 -21.76111 60.0948 8.07241 107.16718 3.94677 7.35612 29.64846 25.77331 -64.17107 6.93825 -105.90393 10.2312 -5.16306 24.99987 -11.95117 -7.37032 -46.20471 -20.76888 -1.95878 -2.23575 30.50209 7.99034 -5.60997 -53.429 -21.80231 2.55183 2.66717
-0.4288 -0.28018 -0.15184 38.86201 53.55061 -15.56875 13.32295 1.20521 -4.29914 -17.06556 25.26819 -0.83079 23.43741 -21.76007 60.56101 8.09196 107.31851 4.09491 7.47142 30.57675 25.78808 -64.17066 7.03387 -106.76601 10.42394 -4.93987 24.6812 -11.82964 -7.21761 -45.48873 -20.6702 -1.9856 -2.24751 30.25706 7.88039 -5.48922 -52.86686 -21.68686 2.586 2.68235
-0.42888 -0.28001 -0.15182 38.90538 53.65589 -15.52539 13.42364 1.27956 -4.34408 -16.99928 24.66226 -0.83079 23.75242 -21.73526 60.99602 8.11872 105.79177 4.00232 7.74906 31.50615 25.85674 -64.17009 7.28581 -107.80858 10.56611 -4.62266 24.32592 -11.64169 -6.99217 -44.64516 -20.55861 -2.02185 -2.26454 29.98412 7.74448 -5.41963 -52.17448 -21.54674 2.62804 2.70115
-0.42896 -0.27985 -0.15179 38.95384 53.76323 -15.48297 13.51473 1.33119 -4.37148 -16.91931 24.14701 -0.83079 24.03784 -21.71813 61.43045 8.1437 105.14971 4.03243 7.93677 32.42153 25.90367 -64.16962 7.47201 -108.69543 10.72023 -4.36138 23.98457 -11.48699 -6.81442 -43.84078 -20.45692 -2.05213 -2.27835 29.72188 7.61366 -5.34877 -51.51811 -21.42206 2.66497 2.71754
-0.42905 -0.27969 -0.15175 39.01022 53.87767 -15.43912 13.60192 1.38789 -4.39553 -16.85886 23.59379 -0.83079 24.3438 -21.71439 61.93026 8.16261 104.0507 4.01461 8.18799 33.40431 25.93832 -64.16902 7.63407 -109.88375 10.92119 -4.04624 23.65482 -11.32203 -6.58268 -43.11891 -20.33653 -2.08984 -2.29585 29.46756 7.50953 -5.18835 -50.96047 -21.27934 2.70871 2.7373
-0.42912 -0.27952 -0.15174 39.04682 53.97537 -15.39842 13.70299 1.44539 -4.43593 -16.7633 23.07706 -0.83079 24.61843 -21.6772 62.28691 8.1952 103.47598 4.03627 8.34793 34.24142 26.0111 -64.16864 7.88283 -110.49994 11.01419 -3.8189 23.29115 -11.16035 -6.43823 -42.18969 -20.25379 -2.11387 -2.30661 29.19026 7.34589 -5.22 -50.16358 -21.16825 2.73984 2.75074
-0.42913 -0.27931 -0.15182 39.02682 54.02806 -15.36228 13.83513 1.49394 -4.51518 -16.55973 22.70742 -0.83079 24.80272 -21.55133 62.23591 8.27102 104.84184 4.2263 8.20788 34.6949 26.1821 -64.16891 8.34944 -109.37525 10.79989 -3.87415 22.85489 -11.0405 -6.62244 -40.76643 -20.27024 -2.09893 -2.29827 28.85618 7.00351 -5.83749 -48.76556 -21.15317 2.73612 2.74719
-0.4291 -0.27908 -0.15194 38.98831 54.06434 -15.33017 13.98065 1.54169 -4.60889 -16.32163 22.38054 -0.83079 24.9515 -21.39295 62.04485 8.35909 106.77195 4.46317 7.97225 34.99674 26.38869 -64.16938 8.89503 -107.68844 10.4822 -4.01811 22.38342 -10.9235 -6.89018 -39.12924 -20.33055 -2.06776 -2.28139 28.49976 6.60556 -6.63522 -47.12572 -21.17068 2.71902 2.73695
-0.42909 -0.27886 -0.15204 38.96193 54.10851 -15.29922 14.12137 1.58968 -4.69378 -16.10326 22.03275 -0.83079 25.10983 -21.25081 61.93042 8.43689 108.38083 4.67706 7.78666 35.35475 26.57507 -64.16973 9.39424 -106.33774 10.22595 -4.10975 21.92058 -10.79352 -7.06531 -37.56052 -20.37101 -2.04573 -2.26972 28.15404 6.24716 -7.30498 -45.57952 -21.17121 2.70677 2.7288
-0.4291 -0.27863 -0.15213 38.91953 54.15036 -15.25574 14.25811 1.63984 -4.78967 -15.8676 21.6847 -0.83079 25.29789 -21.1017 61.76058 8.5348 110.20025 4.88966 7.57975 35.76785 26.78009 -64.17019 9.94401 -104.66019 9.90779 -4.24741 21.48856 -10.70845 -7.44195 -36.11298 -20.39437 -2.02446 -2.25853 27.80609 5.82922 -8.16686 -44.09998 -21.17869 2.70006 2.72452
-0.42905 -0.27841 -0.15224 38.90605 54.19354 -15.23916 14.40524 1.68466 -4.86544 -15.66065 21.34991 -0.83079 25.41492 -20.95965 61.67281 8.59365 111.74365 5.11942 7.39123 36.02877 26.95434 -64.17049 10.40411 -103.51837 9.69363 -4.31326 20.98323 -10.53404 -7.45317 -34.35852 -20.48435 -1.98773 -2.23683 27.45651 5.52028 -8.67582 -42.4226 -21.18143 2.67848 2.71087
-0.42884 -0.27824 -0.15239 38.97927 54.24214 -15.29729 14.58415 1.71489 -4.88297 -15.53155 21.04062 -0.83079 25.34344 -20.84541 61.84975 8.54145 112.32945 5.38338 7.28725 35.9176 27.03231 -64.17032 10.60613 -104.07427 9.80144 -4.14382 20.29766 -10.08949 -6.14108 -31.86091 -20.5662 -1.99854 -2.25285 27.11926 5.54455 -8.12558 -40.28636 -21.15439 2.61947 2.67154
-0.42858 -0.27808 -0.15254 39.08185 54.2932 -15.38206 14.77166 1.73953 -4.87936 -15.43433 20.74439 -0.83079 25.20159 -20.73947 62.11333 8.44956 112.63374 5.66423 7.2028 35.65641 27.07832 -64.16999 10.71283 -105.17449 10.01607 -3.902 19.53927 -9.55934 -4.50888 -29.05672 -20.74277 -1.9793 -2.24741 26.77906 5.67706 -7.22377 -37.95464 -21.12696 2.54581 2.62425
-0.42835 -0.27792 -0.15268 39.16962 54.34452 -15.45372 14.95101 1.76657 -4.88467 -15.32877 20.4433 -0.83079 25.09239 -20.62954 62.33518 8.37587 113.11699 5.94002 7.10117 35.45662 27.14039 -64.16976 10.85649 -105.96928 10.17572 -3.70429 18.80288 -9.08386 -3.22225 -26.35436 -21.00099 -1.91577 -2.20819 26.43307 5.74796 -6.50607 -35.69468 -21.10076 2.47868 2.58027
-0.42808 -0.27775 -0.15285 39.26311 54.38905 -15.52985 15.14908 1.7943 -4.8935 -15.19576 20.13838 -0.83079 24.97923 -20.51922 62.56304 8.30174 113.41679 6.2074 7.02943 35.28013 27.1972 -64.16944 11.02955 -106.98237 10.3585 -3.46378 18.1035 -8.54258 -1.11302 -23.78641 -20.75372 -2.09172 -2.34863 26.11686 5.86947 -5.68166 -33.49873 -21.05579 2.41185 2.5333
-0.42788 -0.27761 -0.15296 39.3517 54.44904 -15.60282 15.30968 1.81914 -4.88967 -15.12835 19.84482 -0.83079 24.85797 -20.41229 62.79959 8.21915 114.00795 6.49427 6.90373 35.02146 27.25699 -64.16925 11.11806 -107.68655 10.52033 -3.29216 17.32097 -8.11708 -0.61586 -20.88902 -21.55684 -1.76772 -2.11468 25.73763 5.91186 -5.00657 -31.12566 -21.06875 2.34079 2.49584
-0.42784 -0.27759 -0.15292 39.4214 54.54702 -15.66197 15.36738 1.83832 -4.85709 -15.23099 19.57265 -0.83079 24.73231 -20.31166 63.04969 8.12097 115.61859 6.84342 6.60304 34.57344 27.33176 -64.16946 10.99238 -107.32585 10.59426 -3.3452 16.23384 -8.04016 -4.85842 -16.98136 -25.44834 -0.02083 -0.81084 25.19235 5.71026 -4.71489 -28.32149 -21.06916 2.26554 2.44149
-0.42787 -0.2776 -0.15282 39.48502 54.66147 -15.7169 15.38633 1.85464 -4.81228 -15.3993 19.31268 -0.83079 24.60092 -20.2146 63.30426 8.01594 117.50415 7.20907 6.25151 34.04871 27.41063 -64.16979 10.78523 -106.65149 10.64451 -3.46681 15.08252 -8.08104 -10.69587 -12.78598 -30.35493 2.2187 0.86114 24.58394 5.4252 -4.60358 -25.34821 -21.155 2.18664 2.40421
-0.42787 -0.27761 -0.15275 39.55019 54.77098 -15.77261 15.42141 1.87157 -4.77232 -15.53991 19.05119 -0.83079 24.47184 -20.11664 63.5504 7.91523 119.16297 7.55867 5.93799 33.55899 27.48819 -64.17005 10.61762 -106.17705 10.70887 -3.54523 14.0223 -8.06301 -15.66371 -8.83941 -34.65698 4.20018 2.33762 23.99802 5.17819 -4.48743 -22.44308 -21.32103 2.10598 2.39028
-0.42784 -0.2776 -0.15269 39.62108 54.86923 -15.83342 15.46373 1.891 -4.73451 -15.67271 18.77257 -0.83079 24.3416 -20.01554 63.82636 7.80799 121.23423 7.94491 5.56334 33.06237 27.56247 -64.17035 10.43616 -105.48514 10.7634 -3.6707 12.70023 -8.06543 -21.22737 -4.38625 -39.56331 6.32746 3.9345 23.43232 4.93514 -4.04411 -19.55519 -21.00491 2.03617 2.24977
-0.4279 -0.27762 -0.15258 39.67877 54.99556 -15.88308 15.48079 1.90486 -4.68971 -15.83679 18.53314 -0.83079 24.21324 -19.92218 64.04033 7.7133 122.52519 8.25863 5.30221 32.56505 27.64479 -64.17061 10.26537 -105.15701 10.83059 -3.71696 11.90652 -8.05344 -25.93845 -0.92063 -43.45551 8.26704 5.367 22.81686 4.66174 -4.31634 -16.6095 -21.68788 1.94691 2.37075
-0.4282 -0.27773 -0.15238 39.6966 55.18877 -15.89581 15.44486 1.90194 -4.62763 -16.07213 18.39176 -0.83079 24.09295 -19.84544 64.08022 7.65449 121.50892 8.3668 5.37984 32.07599 27.74969 -64.17073 10.14483 -105.97658 10.94534 -3.51417 12.61234 -7.98121 -27.85647 -0.28409 -44.25653 9.57191 6.26101 22.01688 4.33223 -6.63608 -13.41195 -25.3294 1.77172 3.26462
-0.42859 -0.27787 -0.15215 39.70207 55.41072 -15.89865 15.38341 1.89392 -4.55928 -16.33615 18.29053 -0.83079 23.97493 -19.77702 64.05745 7.60877 119.71469 8.40155 5.57104 31.59154 27.86239 -64.1708 10.03813 -107.15948 11.07193 -3.23186 13.8481 -7.88935 -28.87046 -0.6473 -44.00852 10.66933 6.97533 21.18066 3.97329 -9.64982 -10.18758 -29.93357 1.58301 4.41126
-0.42894 -0.278 -0.15193 39.71634 55.62405 -15.91062 15.32881 1.88964 -4.49449 -16.58648 18.1757 -0.83079 23.85515 -19.70736 64.06419 7.55761 118.33452 8.47065 5.70162 31.11103 27.97083 -64.17089 9.92509 -108.1279 11.18805 -2.99561 14.82497 -7.80135 -30.33389 -0.53313 -44.26924 11.85967 7.76876 20.40208 3.62237 -12.27166 -7.06465 -33.95063 1.42269 5.40559
-0.42929 -0.27813 -0.1517 39.71721 55.81988 -15.90301 15.29298 1.87931 -4.42605 -16.84266 18.0422 -0.83079 23.73784 -19.62728 64.06696 7.50427 116.7102 8.53621 5.86816 30.60109 28.0826 -64.17099 9.80954 -109.28802 11.32463 -2.72115 15.87469 -7.7385 -31.69654 -0.5046 -44.43389 13.07552 8.58755 19.44759 3.29071 -15.22259 -3.56065 -38.59689 1.16966 6.55679
-0.42965 -0.27827 -0.15149 39.74287 56.05795 -15.93375 15.21241 1.88035 -4.36415 -17.09166 17.95634 -0.83079 23.61647 -19.57059 64.06282 7.45837 115.40372 8.59148 5.98784 30.15602 28.18898 -64.17106 9.70335 -110.14681 11.42202 -2.50487 16.90075 -7.61742 -33.02524 -0.54063 -44.53186 14.17931 9.30387 18.85156 2.91364 -17.65054 -0.84403 -42.167 1.10488 7.4433
-0.43 -0.27838 -0.15134 39.84193 56.41262 -16.07403 15.01504 1.91466 -4.31942 -17.3213 17.99867 -0.83079 23.47925 -19.57859 64.05582 7.43252 115.18527 8.63609 5.94686 29.87772 28.28058 -64.17107 9.62194 -110.01602 11.40527 -2.48349 17.72051 -7.33702 -34.54615 -0.49808 -44.73497 15.04909 9.79762 19.25638 2.41337 -18.46412 -0.32953 -42.46909 1.57726 7.51735
-0.43035 -0.27851 -0.15121 39.96592 56.80738 -16.25303 14.77346 1.96048 -4.2818 -17.54082 18.08709 -0.83079 23.33861 -19.60948 64.04331 7.4133 115.3086 8.67268 5.8557 29.66746 28.36584 -64.17104 9.5494 -109.58114 11.34921 -2.52101 18.50061 -6.99869 -36.04407 -0.48989 -44.89617 15.80579 10.18938 20.02324 1.86995 -18.72651 -0.60554 -41.66551 2.2365 7.31977
-0.43069 -0.27864 -0.15108 40.07736 57.1792 -16.41354 14.55218 2.00068 -4.24284 -17.76001 18.14911 -0.83079 23.20235 -19.62843 64.03336 7.38917 115.26077 8.71322 5.79002 29.43334 28.45304 -64.171 9.47176 -109.33531 11.31341 -2.52066 19.30663 -6.68855 -37.50192 -0.47537 -45.04983 16.59607 10.61537 20.62311 1.34971 -19.24086 -0.50618 -41.40807 2.80159 7.25959
-0.43106 -0.27871 -0.15094 40.19393 57.57219 -16.57754 14.32974 2.04245 -4.1965 -18.00184 18.23231 -0.83079 23.05451 -19.65398 64.02315 7.37316 115.25219 8.75062 5.71697 29.16788 28.54561 -64.1711 9.39927 -108.89806 11.26848 -2.56161 20.09775 -6.37017 -39.14226 -0.45591 -45.27903 17.45619 11.08705 21.23157 0.81249 -19.77393 -0.47266 -41.00141 3.40706 7.14986
-0.43137 -0.27892 -0.15081 40.30536 57.92993 -16.74352 14.09873 2.08361 -4.16625 -18.19275 18.28592 -0.83079 22.92961 -19.67133 64.0103 7.3421 115.25392 8.79273 5.6459 28.98585 28.624 -64.17089 9.31772 -108.76909 11.23236 -2.5351 20.90357 -6.05517 -40.40896 -0.44243 -45.35539 18.14466 11.44094 21.90918 0.30181 -20.1273 -0.49156 -40.62859 3.97062 7.07487
-0.43154 -0.27952 -0.1507 40.40097 58.18289 -16.90607 13.86267 2.12174 -4.18812 -18.25362 18.21046 -0.83079 22.87208 -19.65824 64.01559 7.26379 115.19708 8.85778 5.59157 28.9997 28.67688 -64.16977 9.21197 -109.68225 11.23628 -2.27717 21.75714 -5.76564 -40.64795 -0.4284 -45.0151 18.40379 11.50059 22.68424 -0.13335 -20.12019 -0.45033 -40.63007 4.39296 7.16604
-0.43164 -0.28026 -0.1506 40.48965 58.39832 -17.06915 13.61848 2.15876 -4.22451 -18.2619 18.10967 -0.83079 22.83738 -19.63632 64.01484 7.1708 115.14336 8.92686 5.54045 29.09799 28.71375 -64.16835 9.09653 -110.89402 11.24928 -1.95503 22.62438 -5.4812 -40.51628 -0.41579 -44.52838 18.49203 11.445 23.51733 -0.53842 -19.94645 -0.43696 -40.69669 4.76305 7.29918
